<?xml version="1.0" standalone="no"?>
<!DOCTYPE svg PUBLIC "-//W3C//DTD SVG 20010904//EN"
 "http://www.w3.org/TR/2001/REC-SVG-20010904/DTD/svg10.dtd">
<svg version="1.0" xmlns="http://www.w3.org/2000/svg"
 width="32.000000pt" height="29.000000pt" viewBox="0 0 32.000000 29.000000"
 preserveAspectRatio="xMidYMid meet">
<metadata>
Created by potrace 1.16, written by Peter Selinger 2001-2019
</metadata>
<g transform="translate(0.000000,29.000000) scale(0.100000,-0.100000)"
fill="#000000" stroke="none">
<path d="M130 210 c-5 -34 -7 -35 -55 -40 -35 -4 -45 -7 -32 -12 56 -23 100 2
95 52 l-4 35 -4 -35z"/>
<path d="M170 215 c0 -58 86 -88 125 -45 23 26 15 34 -54 54 -70 21 -71 21
-71 -9z"/>
<path d="M142 143 c5 -25 28 -28 28 -4 0 12 -6 21 -16 21 -9 0 -14 -7 -12 -17z"/>
<path d="M22 118 c-14 -14 -16 -77 -3 -97 8 -12 18 -13 65 -2 46 10 57 17 62
37 4 15 0 34 -10 49 -13 20 -25 25 -59 25 -24 0 -48 -5 -55 -12z"/>
<path d="M182 118 c-16 -16 -16 -68 1 -68 16 0 118 28 124 34 2 2 0 14 -7 25
-8 17 -20 21 -58 21 -27 0 -53 -5 -60 -12z"/>
</g>
</svg>
