<?xml version="1.0" standalone="no"?>
<!DOCTYPE svg PUBLIC "-//W3C//DTD SVG 20010904//EN"
 "http://www.w3.org/TR/2001/REC-SVG-20010904/DTD/svg10.dtd">
<svg version="1.0" xmlns="http://www.w3.org/2000/svg"
 width="433.000000pt" height="399.000000pt" viewBox="0 0 433.000000 399.000000"
 preserveAspectRatio="xMidYMid meet">
<metadata>
Created by potrace 1.16, written by Peter Selinger 2001-2019
</metadata>
<g transform="translate(0.000000,399.000000) scale(0.100000,-0.100000)"
fill="#000000" stroke="none">
<path d="M1860 3373 c-39 -14 -40 -27 -40 -370 0 -254 -3 -335 -12 -342 -7 -6
-28 -22 -45 -37 -18 -14 -33 -31 -33 -37 0 -6 -7 -18 -16 -28 -8 -9 -18 -42
-21 -72 l-6 -54 -54 -6 c-30 -3 -61 -11 -70 -18 -8 -7 -25 -18 -37 -24 -11 -6
-30 -25 -41 -42 -11 -17 -29 -34 -40 -37 -11 -3 -223 -6 -472 -6 l-452 0 -23
42 c-13 23 -34 48 -48 55 -30 15 -106 17 -115 3 -4 -6 -9 -8 -13 -6 -4 2 -8
-15 -9 -38 -2 -41 -1 -41 56 -68 57 -27 64 -35 85 -100 3 -9 20 -25 38 -34 46
-24 323 -36 748 -32 324 3 337 4 385 26 28 13 66 38 85 57 19 19 51 41 72 49
38 16 78 59 78 83 0 21 50 136 69 158 39 46 41 65 41 458 0 426 0 428 -63 426
-18 0 -39 -3 -47 -6z"/>
<path d="M2366 3287 l-46 -43 0 -275 c0 -262 1 -277 20 -294 25 -23 59 -111
76 -199 11 -55 21 -77 47 -105 19 -20 37 -44 40 -53 4 -10 31 -34 62 -53 30
-20 61 -48 69 -64 38 -73 105 -81 659 -81 501 0 521 3 599 76 26 24 54 44 62
44 26 0 84 59 91 92 4 17 25 50 46 73 44 47 69 129 69 227 0 61 -36 188 -54
193 -6 1 -56 13 -111 25 -99 23 -177 57 -193 85 -9 17 -68 28 -229 44 -118 12
-175 32 -203 71 -21 29 -60 38 -250 55 -99 9 -162 30 -204 69 -40 38 -49 41
-211 56 -143 13 -182 25 -223 66 -19 19 -42 34 -52 34 -11 0 -39 -19 -64 -43z"/>
<path d="M280 2429 c0 -5 5 -7 10 -4 6 3 10 8 10 11 0 2 -4 4 -10 4 -5 0 -10
-5 -10 -11z"/>
<path d="M2057 2134 c-6 -57 -13 -64 -73 -72 l-49 -7 -3 -69 c-3 -67 -2 -71
26 -93 19 -14 32 -36 37 -59 8 -44 28 -63 119 -110 67 -35 71 -36 95 -20 15 9
52 30 83 46 49 26 59 35 67 67 24 96 23 113 -4 168 -24 49 -29 54 -68 60 -66
10 -174 44 -185 58 -6 6 -14 25 -17 40 -11 44 -22 40 -28 -9z"/>
<path d="M2745 1830 c-61 -8 -71 -13 -165 -74 -41 -27 -90 -55 -108 -63 -18
-7 -37 -24 -42 -36 -46 -116 -79 -188 -100 -222 l-25 -40 -3 -313 -4 -312 37
-33 c20 -17 46 -47 57 -65 35 -56 52 -59 128 -19 69 36 107 46 270 72 68 11
118 27 177 55 66 32 107 44 210 60 143 23 201 40 278 80 29 15 86 33 126 40
176 28 227 41 304 79 49 24 109 44 155 52 54 10 82 20 99 37 23 23 24 27 18
131 -9 138 -19 174 -63 207 -19 15 -50 57 -71 96 -41 78 -92 127 -173 164 -30
15 -69 40 -87 57 -54 51 -113 56 -568 55 -220 0 -422 -4 -450 -8z"/>
<path d="M571 1811 c-41 -5 -59 -13 -75 -33 -25 -30 -90 -65 -165 -87 -52 -16
-55 -19 -71 -66 -31 -92 -58 -142 -86 -162 -24 -18 -29 -30 -35 -89 -11 -95
-10 -763 0 -846 8 -58 15 -74 50 -115 23 -28 43 -64 47 -83 10 -59 25 -90 56
-112 17 -11 37 -37 45 -56 25 -60 47 -71 144 -72 99 0 174 19 240 61 46 29 72
36 254 64 78 12 119 25 190 60 79 39 104 46 212 60 136 17 200 35 253 70 35
24 74 36 181 56 31 5 76 20 100 32 40 20 45 26 51 67 3 25 7 198 7 386 1 394
-3 421 -68 466 -30 21 -41 38 -50 75 -19 72 -29 93 -48 99 -41 13 -62 28 -74
53 -22 44 -41 61 -68 61 -36 1 -101 31 -144 69 -28 25 -50 34 -99 42 -70 10
-763 10 -847 0z"/>
</g>
</svg>
