<?xml version="1.0" standalone="no"?>
<!DOCTYPE svg PUBLIC "-//W3C//DTD SVG 20010904//EN"
 "http://www.w3.org/TR/2001/REC-SVG-20010904/DTD/svg10.dtd">
<svg version="1.0" xmlns="http://www.w3.org/2000/svg"
 width="32.000000pt" height="29.000000pt" viewBox="0 0 32.000000 29.000000"
 preserveAspectRatio="xMidYMid meet">
<metadata>
Created by potrace 1.16, written by Peter Selinger 2001-2019
</metadata>
<g transform="translate(0.000000,29.000000) scale(0.100000,-0.100000)"
fill="#000000" stroke="none">
<path d="M113 277 c35 -10 37 -12 39 -56 l1 -46 4 43 c3 35 7 42 21 38 9 -3
43 -12 75 -21 31 -9 57 -20 57 -24 0 -5 -29 0 -66 10 -73 20 -84 14 -63 -37 7
-16 12 -32 11 -36 -1 -5 4 -8 10 -8 7 0 2 -7 -10 -16 -14 -10 -22 -25 -22 -45
0 -34 6 -35 79 -13 29 8 55 13 57 11 5 -5 -106 -37 -129 -37 -13 0 -17 10 -19
38 l-1 37 -6 -44 c-5 -39 -10 -46 -41 -57 -32 -11 -23 -13 88 -13 l122 -1 0
145 0 145 -122 -1 c-105 -1 -117 -3 -85 -12z m192 -116 c-3 -6 -11 -11 -17
-11 -6 0 -6 6 2 15 14 17 26 13 15 -4z m-7 -33 c7 -7 12 -17 12 -22 0 -8 -3
-7 -8 0 -4 6 -16 16 -27 22 -15 8 -16 11 -4 12 8 0 20 -5 27 -12z"/>
<path d="M131 220 c-2 -37 -19 -50 -64 -50 -23 0 -36 -4 -32 -10 9 -14 -8 -13
-23 2 -9 9 -12 8 -12 -7 0 -18 6 -20 59 -17 49 3 61 7 71 26 6 13 10 36 7 52
-4 27 -4 27 -6 4z"/>
<path d="M150 140 c0 -5 5 -10 10 -10 6 0 10 5 10 10 0 6 -4 10 -10 10 -5 0
-10 -4 -10 -10z"/>
<path d="M22 118 c-14 -14 -16 -77 -3 -97 8 -13 17 -13 65 -1 55 13 56 14 56
50 0 20 -5 41 -12 48 -16 16 -90 16 -106 0z"/>
</g>
</svg>
